<svg width="17" height="17" viewBox="0 0 17 17" fill="none" xmlns="http://www.w3.org/2000/svg">
<g clip-path="url(#clip0)">
<g filter="url(#filter0_d)">
<path d="M12 15V12H15V15H12ZM12 10V7H15V10H12ZM7 5V2H10V5H7ZM12 2H15V5H12V2ZM7 10V7H10V10H7ZM2 10V7H5V10H2ZM2 15V12H5V15H2ZM7 15V12H10V15H7ZM2 5V2H5V5H2Z" fill="white"/>
</g>
<path d="M12 15V12H15V15H12ZM12 10V7H15V10H12ZM7 5V2H10V5H7ZM12 2H15V5H12V2ZM7 10V7H10V10H7ZM2 10V7H5V10H2ZM2 15V12H5V15H2ZM7 15V12H10V15H7ZM2 5V2H5V5H2Z" fill="white"/>
</g>
<defs>
<filter id="filter0_d" x="0" y="1" width="17" height="17" filterUnits="userSpaceOnUse" color-interpolation-filters="sRGB">
<feFlood flood-opacity="0" result="BackgroundImageFix"/>
<feColorMatrix in="SourceAlpha" type="matrix" values="0 0 0 0 0 0 0 0 0 0 0 0 0 0 0 0 0 0 127 0" result="hardAlpha"/>
<feOffset dy="1"/>
<feGaussianBlur stdDeviation="1"/>
<feColorMatrix type="matrix" values="0 0 0 0 0 0 0 0 0 0 0 0 0 0 0 0 0 0 0.1 0"/>
<feBlend mode="normal" in2="BackgroundImageFix" result="effect1_dropShadow"/>
<feBlend mode="normal" in="SourceGraphic" in2="effect1_dropShadow" result="shape"/>
</filter>
<clipPath id="clip0">
<rect width="17" height="17" fill="white"/>
</clipPath>
</defs>
</svg>
