<svg width="512" height="512" viewBox="0 0 512 512" fill="none" xmlns="http://www.w3.org/2000/svg">
<path d="M497 332C489.289 332 316.076 332 307.279 332C311.699 327.58 433.122 206.157 440.017 199.261C445.875 193.403 445.875 183.906 440.017 178.048L333.952 71.982C328.099 66.128 318.595 66.125 312.739 71.982C306.097 78.624 184.924 199.797 180 204.721V15C180 6.716 173.284 0 165 0H15C6.716 0 0 6.716 0 15V407C0 408.501 0.227 409.948 0.637 411.315C0.22 414.82 0 418.385 0 422C0 471.626 40.374 512 90 512C95.992 512 489.074 512 497 512C505.284 512 512 505.284 512 497V347C512 338.716 505.284 332 497 332ZM323.346 103.802L408.199 188.655L323.346 273.508L238.493 188.655L323.346 103.802ZM217.279 209.868L302.132 294.721L264.853 332C257.452 332 102.495 332 95.147 332C106.404 320.743 204.661 222.486 217.279 209.868ZM30 30H150V152H30V30ZM30 182H150V234.721L30 354.721V182ZM180 482H90C56.916 482 30 455.084 30 422C30 388.916 56.916 362 90 362H180V482ZM330 482H210V362H330V482ZM482 482H360V362H482V482Z" fill="white"/>
<path d="M90 437C98.2843 437 105 430.284 105 422C105 413.716 98.2843 407 90 407C81.7157 407 75 413.716 75 422C75 430.284 81.7157 437 90 437Z" fill="white"/>
</svg>
