<svg width="129" height="129" viewBox="0 0 129 129" fill="none" xmlns="http://www.w3.org/2000/svg">
<path d="M10.5 58.8999H54.8C57.1 58.8999 58.9 57.0999 58.9 54.7999V10.4999C58.9 8.1999 57.1 6.3999 54.8 6.3999H10.5C8.20002 6.3999 6.40002 8.1999 6.40002 10.4999V54.7999C6.40002 56.9999 8.30002 58.8999 10.5 58.8999ZM14.6 14.5999H50.7V50.6999H14.6V14.5999V14.5999Z" fill="white"/>
<path d="M122.6 10.4999C122.6 8.1999 120.8 6.3999 118.5 6.3999H74.2C71.9 6.3999 70.1 8.1999 70.1 10.4999V54.7999C70.1 57.0999 71.9 58.8999 74.2 58.8999H118.5C120.8 58.8999 122.6 57.0999 122.6 54.7999V10.4999ZM114.4 50.6999H78.3V14.5999H114.4V50.6999V50.6999Z" fill="white"/>
<path d="M10.5 122.6H54.8C57.1 122.6 58.9 120.8 58.9 118.5V74.1999C58.9 71.8999 57.1 70.0999 54.8 70.0999H10.5C8.20002 70.0999 6.40002 71.8999 6.40002 74.1999V118.5C6.40002 120.7 8.30002 122.6 10.5 122.6ZM14.6 78.2999H50.7V114.4H14.6V78.2999V78.2999Z" fill="white"/>
<path d="M118.5 70.0999H74.2C71.9 70.0999 70.1 71.8999 70.1 74.1999V118.5C70.1 120.8 71.9 122.6 74.2 122.6H118.5C120.8 122.6 122.6 120.8 122.6 118.5V74.1999C122.6 71.9999 120.7 70.0999 118.5 70.0999ZM114.4 114.4H78.3V78.2999H114.4V114.4V114.4Z" fill="white"/>
</svg>
