<svg width="511" height="511" viewBox="0 0 511 511" fill="none" xmlns="http://www.w3.org/2000/svg">
<g clip-path="url(#clip0)">
<path d="M376.924 490.374C372.901 490.374 368.791 489.863 364.721 488.799L35.4589 400.626C10.0587 393.62 -5.07997 367.346 1.56344 341.966L37.7591 203.164C39.9736 194.645 48.6833 189.471 57.241 191.752C65.7597 193.966 70.8904 202.696 68.6564 211.234L32.4569 350.059C30.2229 358.617 35.3107 367.452 43.8294 369.795L372.901 457.925C381.353 460.159 390.082 455.134 392.297 446.724L403.537 401.37C405.669 392.813 414.313 387.616 422.87 389.705C431.432 391.834 436.648 400.478 434.539 409.035L423.256 454.603C417.568 476.171 398.153 490.374 376.924 490.374Z" fill="white"/>
<path d="M463.093 362.621H133.063C106.642 362.621 85.1558 341.135 85.1558 314.714V69.851C85.1558 43.4294 106.642 21.9436 133.063 21.9436H463.093C489.515 21.9436 511.001 43.4294 511.001 69.851V314.714C511.001 341.135 489.515 362.621 463.093 362.621ZM133.063 53.8819C124.248 53.8819 117.094 61.036 117.094 69.851V314.714C117.094 323.529 124.248 330.683 133.063 330.683H463.093C471.908 330.683 479.063 323.529 479.063 314.714V69.851C479.063 61.036 471.908 53.8819 463.093 53.8819H133.063Z" fill="white"/>
<path d="M191.618 170.991C168.132 170.991 149.032 151.892 149.032 128.406C149.032 104.92 168.132 85.8201 191.618 85.8201C215.104 85.8201 234.2 104.92 234.2 128.406C234.2 151.892 215.104 170.991 191.618 170.991ZM191.618 117.758C185.739 117.758 180.971 122.53 180.971 128.406C180.971 134.281 185.739 139.053 191.618 139.053C197.493 139.053 202.262 134.281 202.262 128.406C202.262 122.53 197.493 117.758 191.618 117.758Z" fill="white"/>
<path d="M101.55 340.901C97.464 340.901 93.3742 339.346 90.267 336.219C84.029 329.981 84.029 319.864 90.267 313.626L186.507 217.386C201.072 202.821 224.769 202.821 239.311 217.386L265.054 243.129L344.132 148.207C351.2 139.732 361.571 134.835 372.581 134.772C384.417 134.114 394 139.498 401.131 147.868L507.126 271.532C512.872 278.218 512.085 288.312 505.398 294.058C498.693 299.809 488.622 299.021 482.872 292.335L376.838 168.629C375.431 166.945 373.708 167.03 372.748 166.73C371.836 166.73 370.066 167.007 368.663 168.668L278.384 277.048C275.507 280.495 271.316 282.584 266.844 282.775C262.286 283.029 257.986 281.282 254.832 278.113L216.722 239.999C214.016 237.293 211.782 237.293 209.076 239.999L112.837 336.219C109.725 339.346 105.64 340.901 101.55 340.901V340.901Z" fill="white"/>
</g>
<defs>
<clipPath id="clip0">
<rect width="511" height="511" fill="white"/>
</clipPath>
</defs>
</svg>
