<svg width="427" height="427" viewBox="0 0 427 427" fill="none" xmlns="http://www.w3.org/2000/svg">
<g clip-path="url(#clip0)">
<path d="M42.667 256C66.2313 256 85.334 236.897 85.334 213.333C85.334 189.769 66.2313 170.666 42.667 170.666C19.1027 170.666 0 189.769 0 213.333C0 236.897 19.1027 256 42.667 256Z" fill="white"/>
<path d="M213.333 256C236.897 256 256 236.897 256 213.333C256 189.769 236.897 170.666 213.333 170.666C189.769 170.666 170.666 189.769 170.666 213.333C170.666 236.897 189.769 256 213.333 256Z" fill="white"/>
<path d="M384 256C407.564 256 426.667 236.897 426.667 213.333C426.667 189.769 407.564 170.666 384 170.666C360.436 170.666 341.333 189.769 341.333 213.333C341.333 236.897 360.436 256 384 256Z" fill="white"/>
</g>
<defs>
<clipPath id="clip0">
<rect width="426.667" height="426.667" fill="white"/>
</clipPath>
</defs>
</svg>
