<svg width="513" height="513" viewBox="0 0 513 513" fill="none" xmlns="http://www.w3.org/2000/svg">
<g clip-path="url(#clip0)">
<path d="M373.34 32.002H10.673C4.78498 32.002 0.00598145 36.781 0.00598145 42.669V362.669C0.00598145 368.557 4.78498 373.336 10.673 373.336H373.34C379.228 373.336 384.007 368.557 384.007 362.669V42.669C384.007 36.781 379.228 32.002 373.34 32.002ZM362.673 352.002H21.34V53.336H362.673V352.002Z" fill="white"/>
<path d="M382.876 357.89L265.543 123.224C263.772 119.704 260.231 117.443 256.284 117.336C252.231 117.144 248.689 119.299 246.727 122.712L168.327 259.928L114.204 205.805C111.921 203.522 108.679 202.392 105.521 202.733C102.321 203.096 99.441 204.866 97.692 207.576L1.69201 356.909C-1.48699 361.88 -0.0569863 368.472 4.89201 371.65C9.86301 374.85 16.455 373.399 19.633 368.45L108.465 230.231L163.121 284.887C165.468 287.234 168.817 288.343 172.081 287.916C175.388 287.468 178.289 285.505 179.932 282.625L255.388 150.593L363.783 367.446C365.66 371.179 369.415 373.334 373.34 373.334C374.961 373.334 376.583 372.971 378.097 372.203C383.367 369.56 385.522 363.16 382.876 357.89Z" fill="white"/>
<path d="M117.34 74.6689C87.943 74.6689 64.007 98.6049 64.007 128.002C64.007 157.399 87.943 181.335 117.34 181.335C146.737 181.335 170.673 157.399 170.673 128.002C170.673 98.6049 146.737 74.6689 117.34 74.6689ZM117.34 160.002C99.697 160.002 85.34 145.645 85.34 128.002C85.34 110.359 99.697 96.0019 117.34 96.0019C134.983 96.0019 149.34 110.359 149.34 128.002C149.34 145.645 134.983 160.002 117.34 160.002Z" fill="white"/>
<path d="M507.249 204.461L379.249 119.128C374.321 115.864 367.729 117.208 364.465 122.093C361.201 127 362.524 133.613 367.43 136.877L487.067 216.642L348.06 454.936L165.191 353.346C160.05 350.466 153.543 352.343 150.684 357.485C147.804 362.648 149.66 369.133 154.823 371.992L346.823 478.659C348.444 479.576 350.236 480.003 351.986 480.003C355.677 480.003 359.239 478.104 361.223 474.712L510.556 218.712C513.393 213.826 511.943 207.576 507.249 204.461Z" fill="white"/>
</g>
<defs>
<clipPath id="clip0">
<rect width="512.005" height="512.005" fill="white"/>
</clipPath>
</defs>
</svg>
