<svg width="512" height="512" viewBox="0 0 512 512" fill="none" xmlns="http://www.w3.org/2000/svg">
<path d="M491.606 34.393L461.606 4.393C458.794 1.58 454.979 0 451 0C424.85 0 146.884 0 133.427 0C121.406 0 110.106 4.681 101.607 13.18L29.181 85.607C20.681 94.107 16 105.407 16 117.427V467C16 491.813 36.187 512 61 512H451C475.813 512 496 491.813 496 467V45C496 41.022 494.42 37.206 491.606 34.393ZM166 29.9H316V105C316 113.284 322.716 120 331 120C339.284 120 346 113.284 346 105V30H376V135C376 143.271 369.271 150 361 150H181C172.729 150 166 143.271 166 135V29.9ZM376 482H136V331H376V482ZM376 301H136V286C136 277.729 142.729 270.9 151 270.9H361C369.271 270.9 376 277.729 376 286V301ZM466 467C466 475.271 459.271 482 451 482H406V286C406 261.187 385.813 241 361 241H151C126.187 241 106 261.187 106 286V482H61C52.729 482 46 475.271 46 467V117.427C46 113.421 47.561 109.654 50.394 106.82L122.82 34.393C125.652 31.561 129.42 30 133.427 30H136V135C136 159.813 156.187 179.9 181 179.9H361C385.813 179.9 406 159.813 406 135V30H444.787L466 51.213V467Z" fill="white"/>
</svg>
