<svg width="897" height="897" viewBox="0 0 897 897" fill="none" xmlns="http://www.w3.org/2000/svg">
<g clip-path="url(#clip0)">
<path d="M863.24 382.771L774.481 367.964C768.03 341.59 758.624 316.379 746.374 292.865L803.195 222.413C815.28 207.524 814.731 186.101 801.99 171.731L766.689 132.002C753.893 117.647 732.673 114.611 716.487 124.837L640.581 172.553C607.195 149.227 569.377 132.002 528.581 122.007L513.731 32.7719C510.615 13.8769 494.264 0.0129395 475.07 0.0129395H421.872C402.717 0.0129395 386.311 13.8769 383.264 32.7719L368.333 122.035C334.604 130.293 302.98 143.623 274.12 161.179L201.932 109.661C186.374 98.5459 165.005 100.284 151.428 113.832L113.845 151.442C100.297 165.019 98.559 186.388 109.703 201.946L161.341 274.272C143.95 302.914 130.757 334.358 122.5 367.787L32.757 382.772C13.891 385.888 0 402.24 0 421.435V474.591C0 493.784 13.891 510.138 32.757 513.254L122.5 528.239C129.281 555.747 139.125 582.023 152.209 606.386L95.647 676.44C83.603 691.315 84.109 712.752 96.85 727.109L132.124 766.839C144.921 781.221 166.152 784.202 182.34 774.002L259.34 725.632C291.921 747.917 328.78 764.296 368.333 774.002L383.264 863.252C386.312 882.148 402.717 896.012 421.872 896.012H475.07C494.264 896.012 510.615 882.149 513.731 863.253L528.606 774.003C561.914 765.856 593.137 752.758 621.74 735.503L696.936 789.208C712.466 800.363 733.851 798.613 747.414 785.022L785.012 747.425C798.544 733.889 800.377 712.532 789.139 696.946L735.603 621.887C753.044 593.149 766.307 561.649 774.512 528.071L863.27 513.251C882.191 510.135 896.026 493.782 896.026 474.588V421.432C895.998 402.24 882.163 385.888 863.24 382.771ZM449.42 616.013C356.656 616.013 281.42 540.763 281.42 448.013C281.42 355.249 356.656 280.013 449.42 280.013C542.168 280.013 617.418 355.249 617.418 448.013C617.418 540.763 542.168 616.013 449.42 616.013Z" fill="white"/>
</g>
<defs>
<clipPath id="clip0">
<rect width="896.025" height="896.025" fill="white"/>
</clipPath>
</defs>
</svg>
