<svg width="432" height="432" viewBox="0 0 432 432" fill="none" xmlns="http://www.w3.org/2000/svg">
<g clip-path="url(#clip0)">
<path d="M393.146 14.279C389.433 8.946 384.433 5.046 378.157 2.572C374.16 0.861 369.971 0.004 365.592 0.004V0H66.378C62.001 0 57.816 0.857 53.818 2.568C47.538 5.04 42.54 8.945 38.829 14.275C35.119 19.605 33.261 25.503 33.261 31.976V399.995C33.261 406.47 35.119 412.366 38.829 417.701C42.54 423.03 47.538 426.934 53.818 429.405C57.812 431.116 62.001 431.971 66.378 431.971C75.327 431.971 83.222 428.829 90.076 422.553L215.986 301.491L341.896 422.556C348.559 428.637 356.458 431.683 365.591 431.683C370.351 431.683 374.539 430.927 378.156 429.404C384.432 426.933 389.432 423.029 393.145 417.693C396.855 412.365 398.709 406.468 398.709 399.994V31.98C398.71 25.507 396.852 19.609 393.146 14.279Z" fill="#222222"/>
</g>
<defs>
<clipPath id="clip0">
<rect width="431.972" height="431.972" fill="white"/>
</clipPath>
</defs>
</svg>
