<svg width="311" height="311" viewBox="0 0 311 311" fill="none" xmlns="http://www.w3.org/2000/svg">
<g clip-path="url(#clip0)">
<path d="M16.0698 311.001C11.9731 311.001 7.87648 309.443 4.76397 306.307C-1.48447 300.058 -1.48447 289.928 4.76397 283.679L283.757 4.68633C290.006 -1.56211 300.136 -1.56211 306.384 4.68633C312.633 10.9348 312.633 21.0651 306.384 27.3174L27.3951 306.307C24.2591 309.423 20.1625 311.001 16.0698 311.001V311.001Z" fill="#222222"/>
<path d="M295.082 311.001C290.986 311.001 286.893 309.443 283.777 306.307L4.76397 27.3174C-1.48447 21.0651 -1.48447 10.9348 4.76397 4.68633C11.0124 -1.56211 21.1427 -1.56211 27.3951 4.68633L306.384 283.679C312.633 289.928 312.633 300.058 306.384 306.307C303.248 309.423 299.156 311.001 295.082 311.001Z" fill="#222222"/>
</g>
<defs>
<clipPath id="clip0">
<rect width="311" height="311" fill="white"/>
</clipPath>
</defs>
</svg>
