<svg width="316" height="316" viewBox="0 0 316 316" fill="none" xmlns="http://www.w3.org/2000/svg">
<g clip-path="url(#clip0)">
<path d="M310.58 33.3311H5C2.239 33.3311 0 35.5691 0 38.3311V277.249C0 280.011 2.239 282.249 5 282.249H310.58C313.343 282.249 315.58 280.011 315.58 277.249V38.3311C315.58 35.5691 313.343 33.3311 310.58 33.3311ZM285.58 242.386L216.814 171.172C216.054 170.387 214.811 170.336 213.991 171.058L166.296 213.037L105.334 137.976C104.938 137.486 104.359 137.206 103.704 137.22C103.073 137.233 102.484 137.536 102.107 138.042L30 234.797V63.3311H285.58V242.386V242.386Z" fill="#222222"/>
<path d="M210.059 135.555C223.597 135.555 234.588 124.573 234.588 111.024C234.588 97.479 223.597 86.491 210.059 86.491C196.51 86.491 185.531 97.479 185.531 111.024C185.531 124.572 196.511 135.555 210.059 135.555Z" fill="#222222"/>
</g>
<defs>
<clipPath id="clip0">
<rect width="315.58" height="315.58" fill="white"/>
</clipPath>
</defs>
</svg>
